<svg width="20" height="18" viewBox="0 0 20 18" fill="none" xmlns="http://www.w3.org/2000/svg">
<path d="M5.83334 13.5C4.91668 13.5 4.17501 14.175 4.17501 15C4.17501 15.825 4.91668 16.5 5.83334 16.5C6.75001 16.5 7.50001 15.825 7.50001 15C7.50001 14.175 6.75001 13.5 5.83334 13.5ZM14.1667 13.5C13.25 13.5 12.5083 14.175 12.5083 15C12.5083 15.825 13.25 16.5 14.1667 16.5C15.0833 16.5 15.8333 15.825 15.8333 15C15.8333 14.175 15.0833 13.5 14.1667 13.5ZM12.9583 9.75C13.5833 9.75 14.1333 9.4425 14.4167 8.9775L17.4 4.11C17.7083 3.615 17.3083 3 16.675 3H4.34168L3.55834 1.5H0.833344V3H2.50001L5.50001 8.6925L4.37501 10.5225C3.76668 11.5275 4.56668 12.75 5.83334 12.75H15.8333V11.25H5.83334L6.75001 9.75H12.9583ZM5.13334 4.5H15.2583L12.9583 8.25H7.10834L5.13334 4.5Z" fill="#323232"/>
</svg>
