<svg width="46" height="10" viewBox="0 0 46 10" fill="none" xmlns="http://www.w3.org/2000/svg">
<path d="M5.00001 7.19587L7.57501 8.75004L6.89168 5.82087L9.16668 3.85004L6.17084 3.59587L5.00001 0.833374L3.82918 3.59587L0.833344 3.85004L3.10834 5.82087L2.42501 8.75004L5.00001 7.19587Z" fill="#FFD600"/>
<path d="M14 7.19587L16.575 8.75004L15.8917 5.82087L18.1667 3.85004L15.1708 3.59587L14 0.833374L12.8292 3.59587L9.83334 3.85004L12.1083 5.82087L11.425 8.75004L14 7.19587Z" fill="#FFD600"/>
<path d="M23 7.19587L25.575 8.75004L24.8917 5.82087L27.1667 3.85004L24.1708 3.59587L23 0.833374L21.8292 3.59587L18.8333 3.85004L21.1083 5.82087L20.425 8.75004L23 7.19587Z" fill="#FFD600"/>
<path d="M32 7.19587L34.575 8.75004L33.8917 5.82087L36.1667 3.85004L33.1708 3.59587L32 0.833374L30.8292 3.59587L27.8333 3.85004L30.1083 5.82087L29.425 8.75004L32 7.19587Z" fill="#FFD600"/>
<path d="M41 7.19587L43.575 8.75004L42.8917 5.82087L45.1667 3.85004L42.1708 3.59587L41 0.833374L39.8292 3.59587L36.8333 3.85004L39.1083 5.82087L38.425 8.75004L41 7.19587Z" fill="#FFD600"/>
</svg>
