<svg width="20" height="20" viewBox="0 0 20 20" fill="none" xmlns="http://www.w3.org/2000/svg">
<path d="M0 0H20V20H0V0Z" fill="white"/>
<path d="M15.8333 5H14.1667C14.1667 2.7 12.3 0.833333 10 0.833333C7.7 0.833333 5.83333 2.7 5.83333 5H4.16667C3.25 5 2.5 5.75 2.5 6.66667V16.6667C2.5 17.5833 3.25 18.3333 4.16667 18.3333H15.8333C16.75 18.3333 17.5 17.5833 17.5 16.6667V6.66667C17.5 5.75 16.75 5 15.8333 5ZM10 2.5C11.3833 2.5 12.5 3.61667 12.5 5H7.5C7.5 3.61667 8.61667 2.5 10 2.5ZM15.8333 16.6667H4.16667V6.66667H15.8333V16.6667ZM10 10C8.61667 10 7.5 8.88333 7.5 7.5H5.83333C5.83333 9.8 7.7 11.6667 10 11.6667C12.3 11.6667 14.1667 9.8 14.1667 7.5H12.5C12.5 8.88333 11.3833 10 10 10Z" fill="black"/>
</svg>
