<svg width="28" height="28" viewBox="0 0 28 28" fill="none" xmlns="http://www.w3.org/2000/svg">
<path d="M8.16669 21C6.88335 21 5.84502 22.05 5.84502 23.3333C5.84502 24.6167 6.88335 25.6667 8.16669 25.6667C9.45002 25.6667 10.5 24.6167 10.5 23.3333C10.5 22.05 9.45002 21 8.16669 21ZM19.8334 21C18.55 21 17.5117 22.05 17.5117 23.3333C17.5117 24.6167 18.55 25.6667 19.8334 25.6667C21.1167 25.6667 22.1667 24.6167 22.1667 23.3333C22.1667 22.05 21.1167 21 19.8334 21ZM18.1417 15.1667C19.0167 15.1667 19.7867 14.6883 20.1834 13.965L24.36 6.39334C24.7917 5.62334 24.2317 4.66668 23.345 4.66668H6.07835L4.98169 2.33334H1.16669V4.66668H3.50002L7.70002 13.5217L6.12502 16.3683C5.27335 17.9317 6.39335 19.8333 8.16669 19.8333H22.1667V17.5H8.16669L9.45002 15.1667H18.1417ZM7.18669 7.00001H21.3617L18.1417 12.8333H9.95169L7.18669 7.00001Z" fill="#323232"/>
</svg>
