<svg width="28" height="28" viewBox="0 0 28 28" fill="none" xmlns="http://www.w3.org/2000/svg">
<path d="M22.1667 5.83333V22.1667H5.83333V5.83333H22.1667ZM22.1667 3.5H5.83333C4.53833 3.5 3.5 4.55 3.5 5.83333V22.1667C3.5 23.45 4.53833 24.5 5.83333 24.5H22.1667C23.45 24.5 24.5 23.45 24.5 22.1667V5.83333C24.5 4.55 23.45 3.5 22.1667 3.5ZM14 14C12.075 14 10.5 12.425 10.5 10.5C10.5 8.575 12.075 7 14 7C15.925 7 17.5 8.575 17.5 10.5C17.5 12.425 15.925 14 14 14ZM14 9.33333C13.3583 9.33333 12.8333 9.85833 12.8333 10.5C12.8333 11.1417 13.3583 11.6667 14 11.6667C14.6417 11.6667 15.1667 11.1417 15.1667 10.5C15.1667 9.85833 14.6417 9.33333 14 9.33333ZM21 21H7V19.215C7 16.2983 11.6317 15.0383 14 15.0383C16.3683 15.0383 21 16.2983 21 19.215V21ZM9.695 18.6667H18.305C17.5 18.0133 15.5283 17.36 14 17.36C12.4717 17.36 10.4883 18.0133 9.695 18.6667Z" fill="#323232"/>
</svg>
