<svg width="22" height="22" viewBox="0 0 22 22" fill="none" xmlns="http://www.w3.org/2000/svg">
<path d="M11 20.1667C12.0083 20.1667 12.8333 19.3417 12.8333 18.3333H9.16667C9.16667 19.3417 9.99167 20.1667 11 20.1667ZM16.5 14.6667V10.0833C16.5 7.26916 15.0058 4.91332 12.375 4.28999V3.66666C12.375 2.90582 11.7608 2.29166 11 2.29166C10.2392 2.29166 9.62501 2.90582 9.62501 3.66666V4.28999C7.00334 4.91332 5.50001 7.25999 5.50001 10.0833V14.6667L3.66667 16.5V17.4167H18.3333V16.5L16.5 14.6667ZM14.6667 15.5833H7.33334V10.0833C7.33334 7.80999 8.71751 5.95832 11 5.95832C13.2825 5.95832 14.6667 7.80999 14.6667 10.0833V15.5833ZM6.94834 3.73999L5.63751 2.42916C3.43751 4.10666 1.98917 6.69166 1.86084 9.62499H3.69417C3.83167 7.19582 5.07834 5.06916 6.94834 3.73999ZM18.3058 9.62499H20.1392C20.0017 6.69166 18.5533 4.10666 16.3625 2.42916L15.0608 3.73999C16.9125 5.06916 18.1683 7.19582 18.3058 9.62499Z" fill="#323232"/>
</svg>
